HIERARCHY
ROOT ui
{
	 OFFSET 0 0 0
	 CHANNELS 3 XPosition YPosition Z Position
	 EndSite
	 {
	 OFFSET 0 -1 0
	 }
}
ROOT li
{
	 OFFSET 0 0 0
	 CHANNELS 3 XPosition YPosition Z Position
	 EndSite
	 {
	 OFFSET 0 -1 0
	 }
}
ROOT ul
{
	 OFFSET 0 0 0
	 CHANNELS 3 XPosition YPosition Z Position
	 EndSite
	 {
	 OFFSET 0 -1 0
	 }
}
ROOT ll
{
	 OFFSET 0 0 0
	 CHANNELS 3 XPosition YPosition Z Position
	 EndSite
	 {
	 OFFSET 0 -1 0
	 }
}
ROOT tt
{
	 OFFSET 0 0 0
	 CHANNELS 3 XPosition YPosition Z Position
	 EndSite
	 {
	 OFFSET 0 -1 0
	 }
}
ROOT tb
{
	 OFFSET 0 0 0
	 CHANNELS 3 XPosition YPosition Z Position
	 EndSite
	 {
	 OFFSET 0 -1 0
	 }
}
ROOT td
{
	 OFFSET 0 0 0
	 CHANNELS 3 XPosition YPosition Z Position
	 EndSite
	 {
	 OFFSET 0 -1 0
	 }
}
ROOT v
{
	 OFFSET 0 0 0
	 CHANNELS 3 XPosition YPosition Z Position
	 EndSite
	 {
	 OFFSET 0 -1 0
	 }
}
ROOT bn
{
	 OFFSET 0 0 0
	 CHANNELS 3 XPosition YPosition Z Position
	 EndSite
	 {
	 OFFSET 0 -1 0
	 }
}
MOTION
Frames: 29
Frame Time: 0.002
2.6010501384735106E-4	-0.001251729965209961	0		0.4908450012207031	-2.425332275390625	0		-1.1018218994140625	-0.045660655975341795	0		-0.853210693359375	-2.363978515625	0		1.364550537109375	-0.7141272583007813	0		3.088725830078125	-0.10980313873291016	0		4.6090205078125	0.14544976806640625	0		5.57205126953125	0.08656410980224609	0		-0.044605033874511715	5.924765625	0		
-0.00966083812713623	0.007672499179840088	0		0.4845563354492187	-2.415342041015625	0		-1.0782989501953124	-0.06666768646240234	0		-0.8428662719726563	-2.37265380859375	0		1.3695169677734376	-0.7201450805664062	0		3.09742236328125	-0.12146087646484376	0		4.60888623046875	0.14634866333007812	0		5.5718935546875	0.08570711517333984	0		-0.163431396484375	5.91375244140625	0		
0.004104313850402832	0.0011324000358581543	0		0.45288906860351563	-2.421885009765625	0		-1.06619091796875	-0.05642771530151367	0		-0.827475830078125	-2.376412353515625	0		1.3757056884765626	-0.7132055053710937	0		3.13425244140625	-0.12569925689697264	0		4.61358154296875	0.1390831756591797	0		5.59071533203125	0.0844028549194336	0		-0.16299717712402345	5.911404296875	0		
0.0070246529579162595	0.0038066890239715576	0		0.509243408203125	-2.425111083984375	0		-1.0781229248046875	-0.046708999633789064	0		-0.8379307250976562	-2.3686591796875	0		1.3757283935546876	-0.7131695556640625	0		3.120505859375	-0.10601188659667969	0		4.61471728515625	0.1558162078857422	0		5.5667919921875	0.0978256607055664	0		-0.03301514434814453	5.9326201171875	0		
-0.006018281936645508	0.009787227630615234	0		0.46085150146484377	-2.41035693359375	0		-1.0823438720703125	-0.051116127014160156	0		-0.8495087280273438	-2.363869384765625	0		1.3905653076171876	-0.7214305419921875	0		3.093002197265625	-0.12513036346435547	0		4.6014189453125	0.15073843383789062	0		5.57146484375	0.09060612487792968	0		-0.03438143920898438	5.9323505859375	0		
0.003632503032684326	3.5031700134277344E-4	0		0.4948712768554687	-2.42415087890625	0		-1.0906417236328125	-0.05841926956176758	0		-0.8533245239257813	-2.3682041015625	0		1.3674677734375	-0.7240000610351562	0		3.12271142578125	-0.1323650665283203	0		4.60608154296875	0.1442447967529297	0		5.5612705078125	0.09156793212890625	0		-0.036619384765625	5.93410986328125	0		
-6.256939768791199E-4	-0.0028148419857025146	0		0.45101840209960936	-2.426501708984375	0		-1.0867816162109376	-0.05591201019287109	0		-0.8432872924804687	-2.376765869140625	0		1.3781611328125	-0.7362144165039063	0		3.12429052734375	-0.14512570190429688	0		4.61272412109375	0.1376353759765625	0		5.571701171875	0.07304425048828125	0		-0.17021665954589843	5.9122880859375	0		
-0.006636242866516113	0.009067192077636718	0		0.5060719909667969	-2.430662109375	0		-1.06704345703125	-0.05865611267089844	0		-0.8760443725585938	-2.369512451171875	0		1.3780362548828125	-0.7362421264648438	0		3.103411865234375	-0.1265243453979492	0		4.6165830078125	0.14399713134765624	0		5.5666435546875	0.08370636749267578	0		-0.17129350280761718	5.91203857421875	0		
0.0029402830600738527	-3.2197698950767515E-4	0		0.5081457214355469	-2.42884619140625	0		-1.07911181640625	-0.04878005218505859	0		-0.8390741577148437	-2.373496337890625	0		1.3778677978515625	-0.736283447265625	0		3.11387841796875	-0.14255165100097655	0		4.61907177734375	0.13129815673828124	0		5.570537109375	0.09310145568847657	0		-0.1722716827392578	5.91180859375	0		
0.0026531341075897216	-5.143100023269654E-4	0		0.49517819213867187	-2.42475439453125	0		-1.08346533203125	-0.053009342193603516	0		-0.851011474609375	-2.367559326171875	0		1.3715302734375	-0.7432277221679687	0		3.125747314453125	-0.1346461639404297	0		4.613916015625	0.13966134643554687	0		5.58023876953125	0.0932927017211914	0		-0.03978313064575195	5.93120556640625	0		
-0.011554482460021973	0.005559329032897949	0		0.48620425415039065	-2.416730224609375	0		-1.0110223388671875	-0.0675776138305664	0		-0.8192649536132812	-2.375376220703125	0		1.3891995849609375	-0.7476126098632813	0		3.09437451171875	-0.1380109100341797	0		4.612498046875	0.1348822021484375	0		5.5799140625	0.09357406616210938	0		-0.041550533294677734	5.9330439453125	0		
-0.002064570903778076	-0.003777806043624878	0		0.5037238159179688	-2.4331767578125	0		-1.0723026123046875	-0.06371566772460938	0		-0.8455450439453125	-2.380124267578125	0		1.3689208984375	-0.7463267211914062	0		3.099909912109375	-0.14507746887207032	0		4.62497900390625	0.12578878784179687	0		5.5695615234375	0.09395125579833985	0		-0.04131540298461914	5.93086376953125	0		
0.0016104060411453248	-9.931960105895995E-4	0		0.5075328674316406	-2.4293681640625	0		-1.06860693359375	-0.05998244094848633	0		-0.8397033081054688	-2.374416015625	0		1.373702392578125	-0.739494873046875	0		3.125481689453125	-0.148534423828125	0		4.628701171875	0.13179440307617188	0		5.5839638671875	0.0818094253540039	0		-0.15920750427246094	5.9187998046875	0		
0.0042563190460205074	0.0018248920440673828	0		0.5092582397460937	-2.426515625	0		-1.0649593505859376	-0.05721705627441406	0		-0.8379796752929688	-2.371607666015625	0		1.3763724365234375	-0.7366319580078124	0		3.11025927734375	-0.13829608154296874	0		4.61546923828125	0.14204637145996094	0		5.56876953125	0.09412777709960937	0		-0.04257778549194336	5.9305888671875	0		
7.687799930572509E-4	-0.0012345019578933717	0		0.4938889770507813	-2.425353515625	0		-1.0103662109375	-0.056325069427490236	0		-0.8465283203125	-2.38059326171875	0		1.3877545166015626	-0.74793017578125	0		3.09051123046875	-0.15601139831542968	0		4.61780126953125	0.12896861267089843	0		5.5683330078125	0.09411898803710937	0		-0.043123699188232424	5.930474609375	0		
-0.0037459189891815184	-0.004261301040649414	0		0.49344122314453126	-2.42544873046875	0		-1.0780478515625	-0.06824028778076172	0		-0.8568330688476562	-2.372520751953125	0		1.387296875	-0.7480200805664062	0		3.0900498046875	-0.1560911407470703	0		4.617337890625	0.12889796447753907	0		5.5678701171875	0.09405400848388672	0		-0.043621192932128905	5.93037646484375	0		
-0.014073790550231934	0.004831371784210205	0		0.5017947387695313	-2.433693115234375	0		-1.0744669189453124	-0.06438853454589843	0		-0.8474793701171875	-2.380774658203125	0		1.36375390625	-0.7507034301757812	0		3.120200927734375	-0.1767388458251953	0		4.61685009765625	0.1287873840332031	0		5.55738330078125	0.09411498260498047	0		-0.17744383239746095	5.91065380859375	0		
-0.00474868106842041	-0.004412271976470947	0		0.4503719177246094	-2.425865966796875	0		-1.0709114990234374	-0.06050982666015625	0		-0.8459983520507812	-2.378864013671875	0		1.3662979736328125	-0.7468482666015624	0		3.086114990234375	-0.1522603302001953	0		4.62731884765625	0.12744627380371093	0		5.57169140625	0.08368840026855469	0		-0.16266468811035156	5.9213212890625	0		
0.0018217400312423705	0.001410176992416382	0		0.5067636108398438	-2.42694287109375	0		-1.071447998046875	-0.06053379440307617	0		-0.85441748046875	-2.36875341796875	0		1.3657431640625	-0.7469368896484375	0		3.103164794921875	-0.17571070861816407	0		4.62678759765625	0.12727112579345704	0		5.5663369140625	0.093575439453125	0		-0.17725347900390626	5.9095234375	0		
-0.015673060417175293	0.004675704002380371	0		0.46420822143554685	-2.422249755859375	0		-1.076071533203125	-0.06446213531494141	0		-0.8591193237304687	-2.372689208984375	0		1.406124755859375	-0.7497491455078125	0		3.107856201171875	-0.1619436798095703	0		4.622134765625	0.12114983367919922	0		5.57064599609375	0.08526241302490234	0		-0.04521553421020508	5.93014013671875	0		
-0.0023424959182739256	-0.0015929449796676636	0		0.49049661254882815	-2.425769287109375	0		-1.086614990234375	-0.06326291275024414	0		-0.8597711791992187	-2.372676513671875	0		1.3615068359375	-0.7510387573242188	0		3.08620361328125	-0.16670869445800782	0		4.61747265625	0.11502334594726563	0		5.565232421875	0.09311495208740235	0		-0.046511325836181644	5.932138671875	0		
-0.006957107067108155	-0.004525506019592286	0		0.47273233032226564	-2.43148876953125	0		-1.0771986083984375	-0.06440219116210938	0		-0.8604287719726562	-2.372646240234375	0		1.3818936767578125	-0.7524737548828125	0		3.085635498046875	-0.16683822631835937	0		4.6320205078125	0.12056271362304688	0		5.57533349609375	0.07369146728515626	0		-0.04588658905029297	5.92911865234375	0		
0.012701425552368164	0.00712555980682373	0		0.5021131591796875	-2.430034423828125	0		-1.067773681640625	-0.0655271224975586	0		-0.8451150512695312	-2.37488720703125	0		1.3634029541015624	-0.7471961669921875	0		3.116891357421875	-0.17752215576171876	0		4.62047412109375	0.12058586883544922	0		5.572392578125	0.10752814483642578	0		-0.030026269912719727	5.93884326171875	0		
-9.386240243911743E-4	0.001386044979095459	0		0.5035410766601562	-2.42706298828125	0		-1.0701668701171876	-0.05742596054077148	0		-0.8087804565429687	-2.377492919921875	0		1.38587255859375	-0.7456339111328125	0		3.095676513671875	-0.1592380676269531	0		4.63094189453125	0.12024202728271484	0		5.578412109375	0.0822245330810547	0		-0.03132058143615723	5.939888671875	0		
0.06448873901367187	-0.002759109020233154	0		0.4801714782714844	-2.414626708984375	0		-1.078801513671875	-0.06420362091064453	0		-0.8602517700195312	-2.370508056640625	0		1.362307373046875	-0.747224609375	0		3.075824462890625	-0.1779551544189453	0		4.61735009765625	0.11536344909667968	0		5.56308935546875	0.09234783935546875	0		-0.04682554626464844	5.929203125	0		
-0.004977840900421143	-0.001462218999862671	0		0.48742572021484376	-2.42572705078125	0		-1.0083646240234374	-0.0693958969116211	0		-0.8268923950195313	-2.376039794921875	0		1.399694091796875	-0.753891357421875	0		3.092339111328125	-0.178293212890625	0		4.61687548828125	0.11528787994384766	0		5.558470703125	0.08431876373291015	0		-0.04711680603027344	5.930259765625	0		
-0.009480765342712402	-0.004320475101470947	0		0.4957751770019531	-2.433830078125	0		-1.083803466796875	-0.06795096588134765	0		-0.8534819946289063	-2.380482177734375	0		1.3613419189453124	-0.7471697998046875	0		3.0877958984375	-0.1832218017578125	0		4.62128369140625	0.10716263580322266	0		5.5669853515625	0.08209890747070313	0		-0.03323477935791016	5.94107568359375	0		
-0.010762220382690429	0.003778649091720581	0		0.47038397216796873	-2.4293056640625	0		-1.0701787109375	-0.06510354614257813	0		-0.8498770141601563	-2.376458251953125	0		1.3609031982421875	-0.74711083984375	0		3.109615966796875	-0.16959178161621094	0		4.6270029296875	0.11505638885498047	0		5.56656103515625	0.08208616638183594	0		-0.047773834228515624	5.9294130859375	0		
-0.016095386505126954	0.007963905811309815	0		0.492144775390625	-2.418614990234375	0		-1.076494384765625	-0.05988815689086914	0		-0.8581287841796875	-2.3662099609375	0		1.3625421142578125	-0.7440676879882813	0		3.08695849609375	-0.18313246154785157	0		4.61560009765625	0.11529715728759765	0		5.5613369140625	0.0922060546875	0		-0.04809360504150391	5.9305087890625	0		
